<svg width="66" height="63" viewBox="0 0 66 63" fill="none" xmlns="http://www.w3.org/2000/svg">
<line x1="1" y1="4" x2="66" y2="4" stroke="#177A31" stroke-width="8"/>
<line x1="35" y1="58" x2="66" y2="58" stroke="#177A31" stroke-width="8"/>
<line x1="5" y1="8" x2="5" y2="38" stroke="#177A31" stroke-width="8"/>
<line x1="62" y1="62" x2="62" y2="7" stroke="#177A31" stroke-width="8"/>
<path d="M2.83105 43.8906L4.13965 46.9766L5.45312 43.8906H7.29883L5.01367 48.4463V51H3.27051V48.4463L0.980469 43.8906H2.83105ZM13.8369 47.3037V47.5918C13.8369 48.1354 13.7604 48.6237 13.6074 49.0566C13.4577 49.4863 13.2445 49.8542 12.9678 50.1602C12.6911 50.4629 12.3639 50.6956 11.9863 50.8584C11.6087 51.0179 11.1921 51.0977 10.7363 51.0977C10.2773 51.0977 9.85742 51.0179 9.47656 50.8584C9.09896 50.6956 8.77018 50.4629 8.49023 50.1602C8.21354 49.8542 7.9987 49.4863 7.8457 49.0566C7.69596 48.6237 7.62109 48.1354 7.62109 47.5918V47.3037C7.62109 46.7601 7.69596 46.2718 7.8457 45.8389C7.9987 45.4059 8.21191 45.0381 8.48535 44.7354C8.76204 44.4294 9.08919 44.1966 9.4668 44.0371C9.84766 43.8743 10.2676 43.793 10.7266 43.793C11.1823 43.793 11.599 43.8743 11.9766 44.0371C12.3574 44.1966 12.6862 44.4294 12.9629 44.7354C13.2396 45.0381 13.4544 45.4059 13.6074 45.8389C13.7604 46.2718 13.8369 46.7601 13.8369 47.3037ZM12.0986 47.5918V47.2939C12.0986 46.9424 12.0677 46.6331 12.0059 46.3662C11.9473 46.096 11.8594 45.8698 11.7422 45.6875C11.625 45.5052 11.4801 45.3685 11.3076 45.2773C11.1383 45.1829 10.9447 45.1357 10.7266 45.1357C10.4987 45.1357 10.3001 45.1829 10.1309 45.2773C9.96159 45.3685 9.81999 45.5052 9.70605 45.6875C9.59212 45.8698 9.50586 46.096 9.44727 46.3662C9.39193 46.6331 9.36426 46.9424 9.36426 47.2939V47.5918C9.36426 47.9401 9.39193 48.2493 9.44727 48.5195C9.50586 48.7865 9.59212 49.0127 9.70605 49.1982C9.82324 49.3838 9.96647 49.5238 10.1357 49.6182C10.3083 49.7126 10.5085 49.7598 10.7363 49.7598C10.9544 49.7598 11.1481 49.7126 11.3174 49.6182C11.4867 49.5238 11.6283 49.3838 11.7422 49.1982C11.8594 49.0127 11.9473 48.7865 12.0059 48.5195C12.0677 48.2493 12.0986 47.9401 12.0986 47.5918ZM18.583 43.8906H20.2969V48.5342C20.2969 49.0876 20.1813 49.5563 19.9502 49.9404C19.7191 50.3213 19.3952 50.6094 18.9785 50.8047C18.5618 51 18.0719 51.0977 17.5088 51.0977C16.9521 51.0977 16.4622 51 16.0391 50.8047C15.6191 50.6094 15.2904 50.3213 15.0527 49.9404C14.8184 49.5563 14.7012 49.0876 14.7012 48.5342V43.8906H16.4199V48.5342C16.4199 48.8271 16.4622 49.0664 16.5469 49.252C16.6315 49.4342 16.7552 49.5677 16.918 49.6523C17.0807 49.737 17.2777 49.7793 17.5088 49.7793C17.7432 49.7793 17.9401 49.737 18.0996 49.6523C18.2591 49.5677 18.3796 49.4342 18.4609 49.252C18.5423 49.0664 18.583 48.8271 18.583 48.5342V43.8906ZM21.376 43.8906H24.1738C24.7207 43.8906 25.196 43.972 25.5996 44.1348C26.0033 44.2975 26.3141 44.5384 26.5322 44.8574C26.7536 45.1764 26.8643 45.5703 26.8643 46.0391C26.8643 46.446 26.8008 46.7861 26.6738 47.0596C26.5469 47.333 26.3695 47.5592 26.1416 47.7383C25.917 47.9141 25.6549 48.0589 25.3555 48.1729L24.7939 48.4902H22.4453L22.4355 47.167H24.1738C24.3919 47.167 24.5726 47.1279 24.7158 47.0498C24.859 46.9717 24.9665 46.861 25.0381 46.7178C25.113 46.5713 25.1504 46.3971 25.1504 46.1953C25.1504 45.9902 25.113 45.8145 25.0381 45.668C24.9632 45.5215 24.8525 45.4092 24.7061 45.3311C24.5628 45.2529 24.3854 45.2139 24.1738 45.2139H23.0898V51H21.376V43.8906ZM25.2676 51L23.6953 47.8555L25.5117 47.8457L27.1035 50.9268V51H25.2676Z" fill="#177A31"/>
<path d="M29.4087 19.1172L33.9888 29.918L38.5859 19.1172H45.0459L37.0479 35.062V44H30.9468V35.062L22.9316 19.1172H29.4087Z" fill="#177A31"/>
<path d="M3.18262 61.3555L4.59863 54.8906H5.44336L5.90234 55.4424L4.39355 62H3.46094L3.18262 61.3555ZM2.80664 54.8906L4.00293 61.4043L3.69531 62H2.61621L1.10742 54.8906H2.80664ZM6.67871 61.3701L7.86523 54.8906H9.55957L8.05078 62H6.97656L6.67871 61.3701ZM6.05371 54.8906L7.50391 61.3945L7.21094 62H6.27832L4.73535 55.4326L5.21387 54.8906H6.05371ZM16.249 58.3037V58.5918C16.249 59.1354 16.1725 59.6237 16.0195 60.0566C15.8698 60.4863 15.6566 60.8542 15.3799 61.1602C15.1032 61.4629 14.776 61.6956 14.3984 61.8584C14.0208 62.0179 13.6042 62.0977 13.1484 62.0977C12.6895 62.0977 12.2695 62.0179 11.8887 61.8584C11.5111 61.6956 11.1823 61.4629 10.9023 61.1602C10.6257 60.8542 10.4108 60.4863 10.2578 60.0566C10.1081 59.6237 10.0332 59.1354 10.0332 58.5918V58.3037C10.0332 57.7601 10.1081 57.2718 10.2578 56.8389C10.4108 56.4059 10.624 56.0381 10.8975 55.7354C11.1742 55.4294 11.5013 55.1966 11.8789 55.0371C12.2598 54.8743 12.6797 54.793 13.1387 54.793C13.5944 54.793 14.0111 54.8743 14.3887 55.0371C14.7695 55.1966 15.0983 55.4294 15.375 55.7354C15.6517 56.0381 15.8665 56.4059 16.0195 56.8389C16.1725 57.2718 16.249 57.7601 16.249 58.3037ZM14.5107 58.5918V58.2939C14.5107 57.9424 14.4798 57.6331 14.418 57.3662C14.3594 57.096 14.2715 56.8698 14.1543 56.6875C14.0371 56.5052 13.8923 56.3685 13.7197 56.2773C13.5505 56.1829 13.3568 56.1357 13.1387 56.1357C12.9108 56.1357 12.7122 56.1829 12.543 56.2773C12.3737 56.3685 12.2321 56.5052 12.1182 56.6875C12.0042 56.8698 11.918 57.096 11.8594 57.3662C11.804 57.6331 11.7764 57.9424 11.7764 58.2939V58.5918C11.7764 58.9401 11.804 59.2493 11.8594 59.5195C11.918 59.7865 12.0042 60.0127 12.1182 60.1982C12.2354 60.3838 12.3786 60.5238 12.5479 60.6182C12.7204 60.7126 12.9206 60.7598 13.1484 60.7598C13.3665 60.7598 13.5602 60.7126 13.7295 60.6182C13.8988 60.5238 14.0404 60.3838 14.1543 60.1982C14.2715 60.0127 14.3594 59.7865 14.418 59.5195C14.4798 59.2493 14.5107 58.9401 14.5107 58.5918ZM17.1377 54.8906H19.9355C20.4824 54.8906 20.9577 54.972 21.3613 55.1348C21.765 55.2975 22.0758 55.5384 22.2939 55.8574C22.5153 56.1764 22.626 56.5703 22.626 57.0391C22.626 57.446 22.5625 57.7861 22.4355 58.0596C22.3086 58.333 22.1312 58.5592 21.9033 58.7383C21.6787 58.9141 21.4167 59.0589 21.1172 59.1729L20.5557 59.4902H18.207L18.1973 58.167H19.9355C20.1536 58.167 20.3343 58.1279 20.4775 58.0498C20.6208 57.9717 20.7282 57.861 20.7998 57.7178C20.8747 57.5713 20.9121 57.3971 20.9121 57.1953C20.9121 56.9902 20.8747 56.8145 20.7998 56.668C20.7249 56.5215 20.6143 56.4092 20.4678 56.3311C20.3245 56.2529 20.1471 56.2139 19.9355 56.2139H18.8516V62H17.1377V54.8906ZM21.0293 62L19.457 58.8555L21.2734 58.8457L22.8652 61.9268V62H21.0293ZM25.375 54.8906V62H23.6611V54.8906H25.375ZM29.6182 54.8906L26.8643 58.4941L25.2529 60.2568L24.9404 58.6846L25.9707 57.1221L27.5039 54.8906H29.6182ZM27.5918 62L25.7559 58.7969L27.0889 57.8154L29.6182 62H27.5918Z" fill="#177A31"/>
</svg>
